<svg width="49" height="22" viewBox="0 0 49 22" fill="none" xmlns="http://www.w3.org/2000/svg">
<path d="M46.4784 21.0302L45.3613 19.0779L45.9551 19.0817L46.7411 20.5572L47.5362 19.0919L48.13 19.0958L47.0027 21.0302L46.9985 21.6736L46.4742 21.6702L46.4784 21.0302Z" fill="white"/>
<path d="M42.7289 20.3378C42.73 20.1536 42.7659 19.9824 42.8364 19.8241C42.9069 19.6647 43.0081 19.5269 43.1401 19.4109C43.2731 19.2938 43.4347 19.2022 43.6248 19.1362C43.816 19.0701 44.0318 19.0379 44.2721 19.0395C44.4827 19.0408 44.6755 19.0636 44.8506 19.1077C45.0267 19.1507 45.19 19.2163 45.3405 19.3044L45.0965 19.6998C45.0515 19.6697 44.9993 19.6429 44.9399 19.6194C44.8816 19.5958 44.8189 19.5761 44.7517 19.5603C44.6857 19.5433 44.6168 19.5302 44.5452 19.5209C44.4747 19.5116 44.4047 19.5067 44.3353 19.5063C44.1677 19.5052 44.0181 19.5252 43.8867 19.5662C43.7552 19.6062 43.644 19.6634 43.5531 19.7377C43.4633 19.811 43.3944 19.8994 43.3463 20.0027C43.2993 20.1049 43.2754 20.2178 43.2746 20.3413C43.2738 20.4692 43.2973 20.5868 43.3451 20.6941C43.393 20.8013 43.4624 20.8944 43.5534 20.9733C43.6455 21.051 43.7576 21.1124 43.8896 21.1574C44.0227 21.2012 44.1731 21.2237 44.3407 21.2248C44.4168 21.2253 44.4923 21.2203 44.5674 21.2097C44.6424 21.1992 44.7148 21.1848 44.7843 21.1665C44.855 21.1471 44.923 21.1244 44.9882 21.0983C45.0535 21.0712 45.1143 21.0418 45.1707 21.0102L45.4096 21.4087C45.2679 21.4982 45.1043 21.5682 44.9187 21.6189C44.7331 21.6684 44.5362 21.6925 44.3278 21.6911C44.062 21.6894 43.8291 21.6537 43.6288 21.5841C43.4286 21.5133 43.2616 21.4174 43.1279 21.2963C42.9941 21.1742 42.8936 21.0313 42.8263 20.8677C42.7601 20.703 42.7276 20.5263 42.7289 20.3378Z" fill="white"/>
<path d="M39.8086 19.042L40.3329 19.0454L41.9383 19.8993L41.9438 19.0558L42.4681 19.0592L42.4514 21.6442L41.9271 21.6408L41.9347 20.455L40.3293 19.6061L40.3162 21.6304L39.7919 21.627L39.8086 19.042Z" fill="white"/>
<path d="M37.2988 19.0258L39.5002 19.04L39.4972 19.4998L37.8201 19.489L37.8168 20.005L39.302 20.0146L39.2992 20.4463L37.814 20.4367L37.8094 21.1561L39.5212 21.1672L39.5182 21.6253L37.2821 21.6109L37.2988 19.0258Z" fill="white"/>
<path d="M34.0316 20.2733C34.0328 20.0914 34.0681 19.9218 34.1375 19.7646C34.2069 19.6062 34.3075 19.469 34.4395 19.353C34.5715 19.237 34.733 19.146 34.9242 19.0799C35.1165 19.0139 35.3361 18.9817 35.5831 18.9833C35.6724 18.9839 35.7617 18.9894 35.851 18.9999C35.9413 19.0093 36.03 19.0242 36.117 19.0446C36.205 19.0651 36.2903 19.091 36.3728 19.1224C36.4564 19.1527 36.5356 19.189 36.6103 19.2314L36.3663 19.6268C36.3212 19.6 36.2701 19.576 36.2129 19.5547C36.1557 19.5323 36.0941 19.5137 36.028 19.4989C35.9631 19.483 35.8953 19.471 35.8248 19.4629C35.7554 19.4547 35.6854 19.4504 35.6148 19.4499C35.4517 19.4489 35.306 19.4689 35.1778 19.5099C35.0496 19.5499 34.9412 19.6071 34.8525 19.6815C34.7638 19.7548 34.696 19.8431 34.649 19.9465C34.602 20.0498 34.5782 20.1633 34.5774 20.2867C34.5765 20.4146 34.6 20.5322 34.6479 20.6395C34.6957 20.7468 34.764 20.8393 34.8528 20.917C34.9416 20.9948 35.0493 21.0561 35.1758 21.1011C35.3023 21.1449 35.4439 21.1673 35.6004 21.1683C35.725 21.1691 35.8392 21.1561 35.9431 21.1292C36.0469 21.1012 36.1376 21.0615 36.2151 21.0102C36.2926 20.9589 36.3558 20.897 36.4048 20.8245C36.4538 20.751 36.4863 20.6685 36.5024 20.577L35.5993 20.5712L35.6021 20.1395L36.9765 20.1484L36.9765 20.1501L36.9782 20.1484C37.0049 20.2809 37.0123 20.41 37.0005 20.5356C36.9897 20.6601 36.9603 20.7779 36.9122 20.889C36.8652 20.999 36.8006 21.1 36.7184 21.1921C36.6362 21.2842 36.5381 21.3635 36.4241 21.43C36.3101 21.4954 36.1807 21.5464 36.0361 21.583C35.8914 21.6184 35.733 21.6356 35.561 21.6345C35.3207 21.6329 35.1053 21.5962 34.915 21.5244C34.7259 21.4526 34.5655 21.3551 34.434 21.2319C34.3025 21.1086 34.2019 20.9646 34.1324 20.7999C34.064 20.6352 34.0304 20.4596 34.0316 20.2733Z" fill="white"/>
<path d="M32.3136 18.9936L32.8693 18.9972L34.1029 21.5903L33.5522 21.5867L33.3483 21.1504L31.8382 21.1407L31.6353 21.5743L31.0829 21.5708L32.3136 18.9936ZM33.1443 20.7174L32.5929 19.5395L32.0412 20.7103L33.1443 20.7174Z" fill="white"/>
<path d="M28.3799 18.9681L28.9042 18.9715L28.8904 21.0968L30.3938 21.1065L30.3909 21.5663L28.3632 21.5532L28.3799 18.9681Z" fill="white"/>
<path d="M26.4767 18.9558L27.0324 18.9594L28.266 21.5526L27.7153 21.549L27.5113 21.1127L26.0013 21.1029L25.7984 21.5366L25.246 21.533L26.4767 18.9558ZM27.3074 20.6797L26.756 19.5018L26.2042 20.6726L27.3074 20.6797Z" fill="white"/>
<path d="M23.8576 19.3988L22.9033 19.3926L22.9062 18.9328L25.3391 18.9485L25.3362 19.4083L24.3819 19.4021L24.3681 21.5274L23.8438 21.524L23.8576 19.3988Z" fill="white"/>
<path d="M22.1895 18.9282L22.717 18.9316L22.7003 21.5166L22.1727 21.5132L22.1895 18.9282Z" fill="white"/>
<path d="M18.9877 20.1761C18.9889 19.9941 19.0241 19.8246 19.0935 19.6673C19.1629 19.509 19.2636 19.3718 19.3956 19.2558C19.5275 19.1398 19.6891 19.0487 19.8803 18.9827C20.0726 18.9167 20.2922 18.8845 20.5392 18.8861C20.6285 18.8866 20.7178 18.8922 20.807 18.9027C20.8974 18.9121 20.986 18.927 21.073 18.9474C21.1611 18.9678 21.2464 18.9937 21.3289 19.0251C21.4125 19.0555 21.4916 19.0918 21.5663 19.1342L21.3223 19.5296C21.2773 19.5028 21.2262 19.4788 21.169 19.4575C21.1118 19.435 21.0501 19.4164 20.9841 19.4017C20.9191 19.3858 20.8514 19.3738 20.7809 19.3656C20.7115 19.3575 20.6415 19.3532 20.5709 19.3527C20.4077 19.3516 20.262 19.3716 20.1339 19.4127C20.0057 19.4527 19.8973 19.5099 19.8086 19.5843C19.7199 19.6576 19.6521 19.7459 19.6051 19.8493C19.5581 19.9526 19.5342 20.066 19.5334 20.1895C19.5326 20.3174 19.5561 20.435 19.6039 20.5423C19.6517 20.6495 19.7201 20.742 19.8089 20.8198C19.8977 20.8976 20.0053 20.9589 20.1319 21.0038C20.2584 21.0476 20.3999 21.0701 20.5565 21.0711C20.6811 21.0719 20.7953 21.0588 20.8991 21.0319C21.0029 21.0039 21.0936 20.9643 21.1711 20.913C21.2486 20.8616 21.3119 20.7997 21.3609 20.7273C21.4099 20.6537 21.4424 20.5712 21.4584 20.4798L20.5554 20.474L20.5582 20.0423L21.9326 20.0512L21.9326 20.0529L21.9342 20.0512C21.9609 20.1837 21.9684 20.3128 21.9565 20.4384C21.9458 20.5629 21.9164 20.6807 21.8682 20.7918C21.8212 20.9017 21.7566 21.0027 21.6744 21.0948C21.5922 21.1869 21.4941 21.2662 21.3801 21.3328C21.2661 21.3982 21.1368 21.4492 20.9921 21.4857C20.8474 21.5212 20.6891 21.5384 20.5171 21.5372C20.2767 21.5357 20.0614 21.499 19.8711 21.4272C19.6819 21.3554 19.5216 21.2579 19.39 21.1347C19.2585 21.0114 19.158 20.8674 19.0885 20.7027C19.0201 20.5379 18.9865 20.3624 18.9877 20.1761Z" fill="white"/>
<path d="M18.2803 18.9029L18.8079 18.9063L18.7912 21.4913L18.2636 21.4879L18.2803 18.9029Z" fill="white"/>
<path d="M15.5518 18.8853L16.4994 18.8914C16.7762 18.8932 17.0164 18.9245 17.22 18.9853C17.4236 19.0462 17.5917 19.1327 17.7244 19.245C17.8582 19.3561 17.9571 19.4913 18.0211 19.6505C18.0863 19.8086 18.1182 19.9863 18.1169 20.1837C18.1157 20.3711 18.0821 20.5445 18.016 20.704C17.9499 20.8624 17.8498 20.9995 17.7156 21.1156C17.5815 21.2305 17.4122 21.3203 17.2078 21.3852C17.0034 21.4489 16.7628 21.4799 16.486 21.4781L15.5351 21.4703L15.5518 18.8853ZM16.6147 21.0241C16.7712 21.0251 16.9086 21.0061 17.0269 20.9672C17.1451 20.9272 17.2436 20.8705 17.3224 20.7971C17.4022 20.7237 17.4624 20.6348 17.5027 20.5303C17.5431 20.4258 17.5637 20.3091 17.5645 20.1801C17.5654 20.0533 17.5463 19.939 17.5072 19.8373C17.4682 19.7345 17.4092 19.6476 17.3303 19.5765C17.2524 19.5044 17.1547 19.4486 17.0369 19.4092C16.9192 19.3699 16.7821 19.3497 16.6255 19.3487L16.0731 19.3451L16.0623 21.0205L16.6147 21.0241Z" fill="white"/>
<path d="M14.3355 0H0.679712V3.40554H8.53177L2.72807 8.85439C2.72807 8.85439 0 11.1416 0 14.6529C0 18.399 3.99215 19.7848 3.99215 19.7848C7.443 20.8652 11.2629 20.0927 12.9699 19.071C16.4633 16.8265 18.232 15.3858 21.1633 12.6005L25.6015 17.7088L29.8728 17.7496L23.8945 10.2166L29.3568 4.76775H25.2601C20.1302 9.45239 17.0584 12.172 11.2629 16.006C10.1495 16.7462 7.10468 17.8369 5.00711 16.006C3.30217 14.5179 4.66879 12.2737 5.34543 11.4792C6.49571 10.1287 14.3355 2.72443 14.3355 2.72443V0Z" fill="white"/>
<path d="M15.3506 0H18.8684V17.7489H15.3506V0Z" fill="white"/>
<path d="M29.7412 4.63708H33.259V17.7489H29.7412V4.63708Z" fill="white"/>
<path d="M30.541 3.51782L34.097 2.6309e-05L48.13 2.61725e-05L48.13 3.51782L30.541 3.51782Z" fill="white"/>
<path d="M41.0662 4.31732C48.5068 4.31732 47.9607 12.2004 47.9607 12.2004H37.7896C37.7896 12.2004 38.2674 15.1225 41.544 15.0546C43.9962 15.0037 45.021 13.7687 45.0254 13.7634L46.9367 15.8701C46.932 15.8767 45.4967 17.9088 41.544 17.9088C33.764 17.9088 33.8985 11.0484 33.8986 11.0451C33.8986 11.0451 33.8986 4.31734 41.0662 4.31732ZM40.9979 7.10358C37.7221 7.0342 37.7213 10.0243 37.7213 10.0257H44.411C44.411 10.0257 44.5476 7.10358 40.9979 7.10358Z" fill="white"/>
</svg>
