<svg width="91" height="41" viewBox="0 0 91 41" fill="none" xmlns="http://www.w3.org/2000/svg">
<path d="M87.8236 39.7383L85.7129 36.0493L86.8348 36.0566L88.3201 38.8445L89.8225 36.0759L90.9444 36.0831L88.8143 39.7384L88.8065 40.9541L87.8158 40.9477L87.8236 39.7383Z" fill="#2D2D2D"/>
<path d="M80.7389 38.43C80.7412 38.0821 80.8089 37.7585 80.9421 37.4594C81.0753 37.1581 81.2666 36.8979 81.5159 36.6786C81.7674 36.4573 82.0727 36.2843 82.4319 36.1595C82.7931 36.0347 83.2008 35.9738 83.655 35.9767C84.053 35.9793 84.4173 36.0223 84.748 36.1057C85.0809 36.187 85.3895 36.3109 85.6738 36.4773L85.2127 37.2244C85.1277 37.1676 85.029 37.117 84.9168 37.0725C84.8067 37.028 84.6881 36.9908 84.5612 36.9608C84.4364 36.9288 84.3064 36.904 84.1711 36.8864C84.0378 36.8689 83.9056 36.8597 83.7743 36.8588C83.4577 36.8568 83.1751 36.8946 82.9267 36.9721C82.6782 37.0476 82.4681 37.1556 82.2964 37.2962C82.1267 37.4347 81.9965 37.6016 81.9056 37.7969C81.8168 37.9901 81.7717 38.2033 81.7702 38.4367C81.7686 38.6783 81.813 38.9005 81.9034 39.1032C81.9938 39.3059 82.1249 39.4818 82.2969 39.6308C82.471 39.7778 82.6828 39.8937 82.9322 39.9787C83.1838 40.0616 83.4679 40.104 83.7846 40.1061C83.9284 40.107 84.0711 40.0975 84.213 40.0776C84.3548 40.0577 84.4914 40.0304 84.6229 39.9959C84.7565 39.9592 84.8849 39.9163 85.0081 39.8671C85.1314 39.8158 85.2463 39.7603 85.353 39.7006L85.8044 40.4535C85.5366 40.6227 85.2274 40.755 84.8768 40.8507C84.5261 40.9443 84.1539 40.9898 83.7602 40.9873C83.2581 40.984 82.8178 40.9166 82.4395 40.785C82.0611 40.6512 81.7456 40.47 81.4929 40.2413C81.2402 40.0105 81.0503 39.7405 80.9231 39.4313C80.798 39.12 80.7366 38.7863 80.7389 38.43Z" fill="#2D2D2D"/>
<path d="M75.2207 35.9814L76.2114 35.9878L79.245 37.6013L79.2553 36.0075L80.2459 36.0139L80.2144 40.8985L79.2237 40.8921L79.2382 38.6514L76.2045 37.0473L76.1798 40.8725L75.1891 40.8661L75.2207 35.9814Z" fill="#2D2D2D"/>
<path d="M70.4775 35.9509L74.6371 35.9778L74.6315 36.8466L71.4626 36.8261L71.4563 37.8012L74.2627 37.8193L74.2574 38.635L71.451 38.6168L71.4422 39.9763L74.6768 39.9972L74.6712 40.8628L70.446 40.8355L70.4775 35.9509Z" fill="#2D2D2D"/>
<path d="M64.3035 38.3082C64.3057 37.9644 64.3723 37.644 64.5034 37.3469C64.6346 37.0477 64.8248 36.7885 65.0741 36.5692C65.3235 36.35 65.6288 36.178 65.9901 36.0532C66.3534 35.9285 66.7684 35.8676 67.2351 35.8706C67.4039 35.8717 67.5726 35.8822 67.7412 35.902C67.9119 35.9198 68.0795 35.948 68.2438 35.9866C68.4103 36.0251 68.5714 36.0741 68.7273 36.1334C68.8853 36.1907 69.0348 36.2594 69.176 36.3395L68.7149 37.0866C68.6298 37.036 68.5332 36.9906 68.4251 36.9503C68.317 36.9079 68.2006 36.8728 68.0758 36.8449C67.953 36.815 67.825 36.7923 67.6918 36.7768C67.5606 36.7614 67.4284 36.7532 67.295 36.7524C66.9867 36.7504 66.7114 36.7882 66.4692 36.8658C66.2271 36.9413 66.0222 37.0494 65.8546 37.19C65.687 37.3285 65.5588 37.4954 65.4701 37.6907C65.3813 37.8859 65.3361 38.1002 65.3346 38.3336C65.3331 38.5753 65.3775 38.7975 65.4678 39.0001C65.5582 39.2028 65.6873 39.3776 65.8551 39.5246C66.0229 39.6715 66.2264 39.7874 66.4654 39.8723C66.7045 39.9551 66.972 39.9974 67.2678 39.9994C67.5032 40.0009 67.719 39.9762 67.9152 39.9254C68.1114 39.8725 68.2827 39.7976 68.4292 39.7006C68.5757 39.6036 68.6952 39.4867 68.7878 39.3497C68.8803 39.2107 68.9418 39.0549 68.9721 38.8821L67.2657 38.8711L67.271 38.0555L69.868 38.0722L69.868 38.0754L69.8711 38.0723C69.9216 38.3226 69.9356 38.5665 69.9133 38.8038C69.893 39.0392 69.8374 39.2617 69.7464 39.4716C69.6576 39.6794 69.5355 39.8702 69.3802 40.0443C69.2249 40.2183 69.0395 40.3681 68.8241 40.4938C68.6087 40.6175 68.3643 40.7138 68.0909 40.7829C67.8176 40.8499 67.5184 40.8823 67.1934 40.8802C66.7392 40.8773 66.3323 40.808 65.9727 40.6723C65.6152 40.5366 65.3122 40.3524 65.0637 40.1195C64.8152 39.8866 64.6253 39.6145 64.4939 39.3032C64.3647 38.992 64.3012 38.6603 64.3035 38.3082Z" fill="#2D2D2D"/>
<path d="M61.0575 35.8901L62.1076 35.8969L64.4386 40.7967L63.398 40.79L63.0126 39.9656L60.1594 39.9471L59.7759 40.7666L58.7321 40.7599L61.0575 35.8901ZM62.6273 39.1474L61.5853 36.9217L60.5428 39.1339L62.6273 39.1474Z" fill="#2D2D2D"/>
<path d="M53.624 35.842L54.6147 35.8484L54.5887 39.8643L57.4295 39.8826L57.4239 40.7514L53.5925 40.7267L53.624 35.842Z" fill="#2D2D2D"/>
<path d="M50.0282 35.8185L51.0783 35.8253L53.4093 40.7252L52.3687 40.7185L51.9833 39.894L49.1301 39.8756L48.7466 40.6951L47.7028 40.6883L50.0282 35.8185ZM51.598 39.0758L50.556 36.8502L49.5135 39.0624L51.598 39.0758Z" fill="#2D2D2D"/>
<path d="M45.0798 36.6556L43.2766 36.6439L43.2822 35.7751L47.8793 35.8049L47.8737 36.6736L46.0705 36.662L46.0445 40.6778L45.0539 40.6714L45.0798 36.6556Z" fill="#2D2D2D"/>
<path d="M41.9268 35.7666L42.9237 35.773L42.8921 40.6577L41.8952 40.6512L41.9268 35.7666Z" fill="#2D2D2D"/>
<path d="M35.8777 38.1243C35.8799 37.7806 35.9466 37.4601 36.0777 37.163C36.2088 36.8639 36.399 36.6047 36.6484 36.3854C36.8977 36.1662 37.203 35.9942 37.5643 35.8694C37.9276 35.7447 38.3426 35.6838 38.8093 35.6868C38.9781 35.6879 39.1468 35.6984 39.3154 35.7182C39.4861 35.736 39.6537 35.7641 39.818 35.8027C39.9845 35.8413 40.1456 35.8903 40.3015 35.9496C40.4595 36.0069 40.6091 36.0756 40.7502 36.1556L40.2891 36.9027C40.204 36.8522 40.1074 36.8068 39.9993 36.7665C39.8913 36.7241 39.7748 36.689 39.65 36.6611C39.5272 36.6311 39.3993 36.6084 39.266 36.593C39.1348 36.5775 39.0026 36.5694 38.8693 36.5685C38.5609 36.5665 38.2856 36.6043 38.0434 36.682C37.8013 36.7575 37.5964 36.8655 37.4288 37.0061C37.2612 37.1446 37.133 37.3115 37.0443 37.5068C36.9555 37.7021 36.9104 37.9164 36.9089 38.1498C36.9073 38.3914 36.9517 38.6136 37.0421 38.8163C37.1324 39.019 37.2615 39.1938 37.4293 39.3407C37.5972 39.4877 37.8006 39.6036 38.0396 39.6884C38.2787 39.7713 38.5462 39.8136 38.842 39.8155C39.0775 39.817 39.2933 39.7924 39.4894 39.7416C39.6856 39.6887 39.857 39.6137 40.0034 39.5167C40.1499 39.4198 40.2694 39.3028 40.362 39.1659C40.4546 39.0269 40.516 38.871 40.5463 38.6983L38.8399 38.6873L38.8452 37.8716L41.4422 37.8884L41.4422 37.8915L41.4453 37.8884C41.4958 38.1388 41.5099 38.3826 41.4875 38.62C41.4672 38.8553 41.4116 39.0779 41.3207 39.2877C41.2318 39.4955 41.1097 39.6864 40.9544 39.8604C40.7991 40.0344 40.6138 40.1843 40.3983 40.31C40.1829 40.4336 39.9385 40.53 39.6652 40.599C39.3918 40.666 39.0926 40.6985 38.7676 40.6964C38.3134 40.6934 37.9065 40.6241 37.5469 40.4885C37.1894 40.3528 36.8864 40.1685 36.6379 39.9357C36.3894 39.7028 36.1995 39.4307 36.0681 39.1194C35.9389 38.8081 35.8754 38.4764 35.8777 38.1243Z" fill="#2D2D2D"/>
<path d="M34.541 35.7185L35.5379 35.7249L35.5064 40.6096L34.5095 40.6031L34.541 35.7185Z" fill="#2D2D2D"/>
<path d="M29.3857 35.6853L31.1765 35.6969C31.6994 35.7003 32.1532 35.7594 32.5379 35.8744C32.9226 35.9894 33.2404 36.153 33.4911 36.365C33.7439 36.575 33.9308 36.8304 34.0518 37.1312C34.1749 37.4299 34.2352 37.7658 34.2328 38.1387C34.2305 38.4929 34.167 38.8206 34.0421 39.122C33.9172 39.4212 33.728 39.6804 33.4745 39.8996C33.221 40.1167 32.9011 40.2866 32.5149 40.4091C32.1286 40.5295 31.6741 40.588 31.1511 40.5847L29.3542 40.5699L29.3857 35.6853ZM31.3942 39.7268C31.69 39.7287 31.9497 39.6929 32.1731 39.6193C32.3965 39.5436 32.5826 39.4365 32.7315 39.2979C32.8824 39.1593 32.996 38.9912 33.0722 38.7938C33.1485 38.5963 33.1875 38.3757 33.189 38.132C33.1906 37.8924 33.1545 37.6765 33.0807 37.4843C33.007 37.2901 32.8955 37.1258 32.7464 36.9915C32.5993 36.8551 32.4146 36.7498 32.1921 36.6754C31.9696 36.601 31.7105 36.5629 31.4146 36.561L30.3708 36.5542L30.3504 39.72L31.3942 39.7268Z" fill="#2D2D2D"/>
<path d="M27.0878 0.000244141H1.28436V6.43523H16.1213L5.15488 16.7312C5.15488 16.7312 0 21.0531 0 27.6879C0 34.7664 7.54344 37.385 7.54344 37.385C14.064 39.4264 21.282 37.9666 24.5075 36.0361C31.1085 31.795 34.4506 29.0726 39.9895 23.8097L48.3756 33.4622L56.4467 33.5393L45.1502 19.3052L55.4716 9.00922H47.7306C38.0374 17.8612 32.233 23 21.282 30.2447C19.1782 31.6433 13.4248 33.7042 9.46126 30.2447C6.23968 27.4327 8.82199 23.1921 10.1005 21.691C12.2741 19.1392 27.0878 5.14823 27.0878 5.14823V0.000244141Z" fill="#2D2D2D"/>
<path d="M29.0059 0.000244141H35.653V33.5379H29.0059V0.000244141Z" fill="#2D2D2D"/>
<path d="M56.1982 8.76221H62.8453V33.5378H56.1982V8.76221Z" fill="#2D2D2D"/>
<path d="M57.709 6.64722L64.4282 0.000111286L90.9445 0.000111081L90.9445 6.64722L57.709 6.64722Z" fill="#2D2D2D"/>
<path d="M77.5976 8.15796C91.6571 8.15796 90.6252 23.0535 90.6252 23.0535H71.4062C71.4062 23.0535 72.3092 28.5751 78.5005 28.4467C83.1341 28.3506 85.0705 26.017 85.0788 26.007L88.6904 29.9877C88.6816 30.0002 85.9695 33.84 78.5005 33.84C63.7996 33.8399 64.0539 20.8768 64.054 20.8706C64.054 20.8706 64.0541 8.158 77.5976 8.15796ZM77.4686 13.4228C71.2788 13.2917 71.2773 18.9417 71.2773 18.9444H83.9179C83.9179 18.9444 84.1759 13.4228 77.4686 13.4228Z" fill="#2D2D2D"/>
</svg>
