<svg width="301" height="136" viewBox="0 0 301 136" fill="none" xmlns="http://www.w3.org/2000/svg">
<path d="M290.67 131.521L283.685 119.312L287.398 119.336L292.314 128.563L297.286 119.4L300.999 119.424L293.949 131.522L293.923 135.545L290.645 135.524L290.67 131.521Z" fill="#2D2D2D"/>
<path d="M267.222 127.191C267.229 126.039 267.453 124.968 267.894 123.978C268.335 122.981 268.968 122.12 269.793 121.394C270.625 120.662 271.636 120.089 272.825 119.676C274.02 119.263 275.37 119.061 276.873 119.071C278.19 119.08 279.396 119.222 280.491 119.498C281.592 119.767 282.614 120.177 283.555 120.728L282.029 123.201C281.747 123.013 281.421 122.845 281.049 122.698C280.685 122.551 280.292 122.427 279.872 122.328C279.459 122.222 279.029 122.14 278.581 122.082C278.14 122.024 277.702 121.993 277.268 121.991C276.22 121.984 275.285 122.109 274.462 122.366C273.64 122.615 272.945 122.973 272.376 123.438C271.815 123.897 271.384 124.449 271.083 125.095C270.789 125.735 270.64 126.44 270.635 127.213C270.63 128.013 270.777 128.748 271.076 129.419C271.375 130.09 271.809 130.672 272.378 131.165C272.954 131.651 273.655 132.035 274.481 132.316C275.313 132.591 276.254 132.731 277.302 132.738C277.778 132.741 278.25 132.71 278.72 132.644C279.189 132.578 279.641 132.488 280.076 132.373C280.519 132.252 280.944 132.11 281.351 131.947C281.759 131.777 282.14 131.594 282.493 131.396L283.987 133.888C283.101 134.448 282.077 134.886 280.917 135.203C279.756 135.512 278.524 135.663 277.221 135.655C275.559 135.644 274.102 135.421 272.85 134.985C271.598 134.542 270.553 133.943 269.717 133.186C268.881 132.422 268.252 131.528 267.831 130.505C267.417 129.475 267.214 128.37 267.222 127.191Z" fill="#2D2D2D"/>
<path d="M248.959 119.087L252.238 119.108L262.278 124.449L262.312 119.174L265.591 119.195L265.487 135.361L262.208 135.34L262.256 127.924L252.215 122.615L252.133 135.275L248.855 135.254L248.959 119.087Z" fill="#2D2D2D"/>
<path d="M233.261 118.986L247.028 119.075L247.009 121.95L236.521 121.882L236.5 125.11L245.788 125.17L245.771 127.869L236.483 127.809L236.454 132.309L247.159 132.378L247.14 135.243L233.156 135.152L233.261 118.986Z" fill="#2D2D2D"/>
<path d="M212.826 126.787C212.834 125.65 213.054 124.589 213.488 123.606C213.922 122.616 214.552 121.758 215.377 121.032C216.202 120.306 217.213 119.737 218.409 119.324C219.611 118.911 220.985 118.71 222.529 118.72C223.088 118.724 223.646 118.758 224.204 118.824C224.769 118.883 225.324 118.976 225.868 119.104C226.419 119.231 226.952 119.393 227.468 119.59C227.991 119.779 228.486 120.007 228.953 120.272L227.427 122.744C227.145 122.577 226.826 122.427 226.468 122.293C226.11 122.153 225.725 122.037 225.312 121.945C224.905 121.845 224.482 121.77 224.041 121.719C223.607 121.668 223.169 121.641 222.728 121.638C221.707 121.632 220.796 121.757 219.994 122.014C219.193 122.264 218.515 122.621 217.96 123.087C217.405 123.545 216.981 124.097 216.687 124.744C216.394 125.39 216.244 126.099 216.239 126.872C216.234 127.671 216.381 128.407 216.68 129.078C216.979 129.748 217.406 130.327 217.962 130.813C218.517 131.3 219.191 131.683 219.982 131.964C220.773 132.238 221.658 132.378 222.637 132.385C223.417 132.39 224.131 132.308 224.78 132.14C225.43 131.965 225.997 131.717 226.481 131.396C226.966 131.075 227.362 130.688 227.668 130.235C227.974 129.775 228.178 129.259 228.278 128.687L222.631 128.651L222.648 125.951L231.243 126.007L231.243 126.017L231.254 126.007C231.421 126.835 231.467 127.642 231.393 128.428C231.326 129.207 231.142 129.943 230.841 130.638C230.547 131.326 230.143 131.957 229.629 132.533C229.115 133.109 228.501 133.605 227.788 134.021C227.076 134.43 226.267 134.749 225.362 134.978C224.457 135.2 223.467 135.307 222.391 135.3C220.888 135.29 219.541 135.061 218.351 134.612C217.168 134.163 216.165 133.553 215.343 132.782C214.52 132.012 213.891 131.111 213.457 130.081C213.029 129.051 212.819 127.953 212.826 126.787Z" fill="#2D2D2D"/>
<path d="M202.082 118.784L205.558 118.807L213.273 135.024L209.828 135.002L208.553 132.273L199.11 132.212L197.84 134.924L194.386 134.902L202.082 118.784ZM207.278 129.565L203.829 122.199L200.379 129.521L207.278 129.565Z" fill="#2D2D2D"/>
<path d="M177.481 118.625L180.76 118.647L180.674 131.938L190.077 131.999L190.058 134.874L177.377 134.792L177.481 118.625Z" fill="#2D2D2D"/>
<path d="M165.58 118.549L169.056 118.571L176.771 134.788L173.326 134.766L172.051 132.037L162.608 131.976L161.338 134.688L157.884 134.666L165.58 118.549ZM170.776 129.329L167.327 121.963L163.877 129.285L170.776 129.329Z" fill="#2D2D2D"/>
<path d="M149.201 121.318L143.233 121.28L143.252 118.404L158.467 118.502L158.448 121.378L152.48 121.339L152.394 134.631L149.116 134.609L149.201 121.318Z" fill="#2D2D2D"/>
<path d="M138.767 118.375L142.066 118.397L141.962 134.563L138.662 134.542L138.767 118.375Z" fill="#2D2D2D"/>
<path d="M118.745 126.18C118.753 125.042 118.973 123.981 119.407 122.998C119.841 122.008 120.471 121.15 121.296 120.424C122.121 119.699 123.132 119.129 124.327 118.716C125.53 118.304 126.904 118.102 128.448 118.112C129.007 118.116 129.565 118.15 130.123 118.216C130.688 118.275 131.243 118.368 131.787 118.496C132.338 118.623 132.871 118.785 133.387 118.982C133.91 119.171 134.405 119.399 134.872 119.664L133.346 122.136C133.064 121.969 132.744 121.819 132.387 121.685C132.029 121.545 131.644 121.429 131.231 121.337C130.824 121.237 130.401 121.162 129.96 121.111C129.526 121.06 129.088 121.033 128.647 121.03C127.626 121.024 126.715 121.149 125.913 121.406C125.112 121.656 124.434 122.013 123.879 122.479C123.324 122.937 122.9 123.489 122.606 124.136C122.313 124.782 122.163 125.491 122.158 126.264C122.153 127.064 122.3 127.799 122.599 128.47C122.898 129.141 123.325 129.719 123.881 130.205C124.436 130.692 125.11 131.075 125.901 131.356C126.692 131.63 127.577 131.771 128.556 131.777C129.336 131.782 130.05 131.7 130.699 131.532C131.349 131.357 131.916 131.109 132.4 130.788C132.885 130.467 133.281 130.08 133.587 129.627C133.893 129.167 134.097 128.651 134.197 128.079L128.55 128.043L128.567 125.343L137.162 125.399L137.162 125.409L137.173 125.399C137.34 126.227 137.386 127.034 137.312 127.82C137.245 128.599 137.061 129.336 136.76 130.03C136.466 130.718 136.062 131.35 135.548 131.925C135.034 132.501 134.42 132.997 133.707 133.413C132.994 133.823 132.186 134.141 131.281 134.37C130.376 134.592 129.386 134.699 128.31 134.692C126.807 134.683 125.46 134.453 124.27 134.004C123.087 133.555 122.084 132.945 121.261 132.175C120.439 131.404 119.81 130.503 119.376 129.473C118.948 128.443 118.738 127.345 118.745 126.18Z" fill="#2D2D2D"/>
<path d="M114.321 118.217L117.621 118.239L117.516 134.405L114.217 134.384L114.321 118.217Z" fill="#2D2D2D"/>
<path d="M97.2578 118.107L103.185 118.145C104.915 118.157 106.417 118.352 107.691 118.733C108.964 119.114 110.015 119.655 110.845 120.357C111.682 121.052 112.301 121.897 112.701 122.893C113.109 123.881 113.308 124.993 113.3 126.227C113.293 127.399 113.082 128.484 112.669 129.481C112.256 130.472 111.63 131.33 110.79 132.055C109.951 132.774 108.893 133.336 107.614 133.741C106.336 134.14 104.831 134.334 103.101 134.322L97.1533 134.274L97.2578 118.107ZM103.905 131.483C104.884 131.489 105.744 131.371 106.483 131.127C107.223 130.877 107.839 130.522 108.331 130.064C108.831 129.605 109.207 129.049 109.459 128.395C109.712 127.742 109.84 127.012 109.846 126.205C109.851 125.412 109.731 124.697 109.487 124.061C109.243 123.418 108.874 122.875 108.38 122.43C107.894 121.979 107.282 121.63 106.546 121.384C105.81 121.138 104.952 121.012 103.973 121.005L100.518 120.983L100.45 131.461L103.905 131.483Z" fill="#2D2D2D"/>
<path d="M89.6528 0H4.25086V21.2979H53.357L17.0611 55.3746C17.0611 55.3746 0 69.6788 0 91.6381C0 115.066 24.9666 123.733 24.9666 123.733C46.5479 130.489 70.4373 125.658 81.1126 119.268C102.96 105.231 114.021 96.2212 132.354 78.8023L160.109 110.749L186.822 111.004L149.434 63.8938L183.595 29.8171H157.974C125.893 59.1144 106.682 76.1224 70.4373 100.1C63.4744 104.729 44.4321 111.55 31.314 100.1C20.6515 90.7935 29.1982 76.7584 33.4298 71.7902C40.6236 63.3443 89.6528 17.0383 89.6528 17.0383V0Z" fill="#2D2D2D"/>
<path d="M96 0H118V111H96V0Z" fill="#2D2D2D"/>
<path d="M186 29H208V111H186V29Z" fill="#2D2D2D"/>
<path d="M191 22L213.239 4.74996e-06L301 4.72849e-06L301 22L191 22Z" fill="#2D2D2D"/>
<path d="M256.826 27C303.359 27 299.944 76.3 299.944 76.3H236.335C236.335 76.3 239.323 94.5749 259.815 94.15C275.15 93.8319 281.56 86.1081 281.587 86.075L293.54 99.25C293.511 99.2916 284.535 112 259.815 112C211.159 112 212.001 69.0956 212.001 69.075C212.001 69.075 212.001 27.0001 256.826 27ZM256.399 44.425C235.913 43.9912 235.908 62.691 235.908 62.7H277.745C277.745 62.7 278.599 44.425 256.399 44.425Z" fill="#2D2D2D"/>
</svg>
