<svg width="18" height="18" viewBox="0 0 18 18" fill="none" xmlns="http://www.w3.org/2000/svg">
<path d="M13.0158 8.0092C14.4048 9.8922 14.8338 11.5262 14.5748 11.7862C14.3148 12.0442 12.6818 11.6162 10.7968 10.2272L5.27085 15.7542C9.45685 17.5922 14.8979 13.7362 15.8758 12.7582C16.8008 11.8362 15.9728 9.4492 14.0198 7.0042L13.0158 8.0092ZM7.48185 6.7562C6.38285 5.0982 6.05085 3.7332 6.28785 3.4962C6.52085 3.2622 7.88785 3.5922 9.54485 4.6932L10.5678 3.6682C8.30385 1.9942 6.17285 1.3342 5.31085 2.1992C4.38285 3.1252 0.862849 8.0762 2.07985 12.1562L7.48185 6.7562ZM17.3358 0.293201C17.2431 0.200255 17.1329 0.126518 17.0115 0.0762069C16.8902 0.0258962 16.7602 0 16.6288 0C16.4975 0 16.3675 0.0258962 16.2462 0.0762069C16.1248 0.126518 16.0146 0.200255 15.9218 0.293201L0.292849 15.9232C0.105341 16.1107 0 16.365 0 16.6302C0 16.8954 0.105341 17.1497 0.292849 17.3372C0.480357 17.5247 0.734673 17.6301 0.999849 17.6301C1.26503 17.6301 1.51934 17.5247 1.70685 17.3372L17.3358 1.7072C17.4288 1.61441 17.5025 1.50421 17.5528 1.38289C17.6032 1.26158 17.6291 1.13153 17.6291 1.0002C17.6291 0.868868 17.6032 0.738823 17.5528 0.617508C17.5025 0.496193 17.4288 0.385989 17.3358 0.293201Z" fill="white"/>
</svg>
