<svg width="45" height="32" viewBox="0 0 45 32" fill="none" xmlns="http://www.w3.org/2000/svg">
<path d="M17.8962 22.7499V9.25463L29.6574 16.003L17.8962 22.7499ZM44.0563 5.00643C43.5252 3.03746 42.0248 1.51495 40.1179 0.976163L40.0774 0.967083C35.2867 0.35263 29.7459 0.00151332 24.1226 0.00151332C23.551 0.00151332 22.9809 0.00454014 22.4122 0.0121073L22.4993 0.010594C22.0161 0.00454025 21.4475 0 20.8759 0C15.2526 0 9.70877 0.351116 4.267 1.03065L4.91815 0.964056C2.97219 1.51343 1.47184 3.03443 0.951222 4.96406L0.94222 5.00341C0.34208 8.19523 0 11.8683 0 15.6216C0 15.7548 7.00402e-08 15.888 0.00150042 16.0197V15.9985C0.00150042 16.1105 0 16.2437 0 16.3768C0 20.1302 0.34358 23.8017 0.999233 27.3628L0.94222 26.9936C1.47334 28.9625 2.97369 30.4851 4.88064 31.0238L4.92115 31.0329C9.71177 31.6474 15.2526 31.9985 20.8759 31.9985C21.446 31.9985 22.0161 31.9955 22.5863 31.9879L22.4993 31.9894C22.9824 31.9955 23.5525 32 24.1226 32C29.7474 32 35.2897 31.6489 40.7315 30.9694L40.0804 31.0359C42.0278 30.4881 43.5282 28.9656 44.0503 27.0359L44.0593 26.9966C44.6579 23.8048 45 20.1317 45 16.3799C45 16.2467 45 16.1135 44.9985 15.9818V16.0015C44.9985 15.8895 45 15.7563 45 15.6232C45 11.8698 44.6564 8.19826 44.0008 4.63716L44.0563 5.00643Z" fill="#2D2D2D"/>
</svg>
